<svg xmlns="http://www.w3.org/2000/svg" xmlns:xlink="http://www.w3.org/1999/xlink" xmlns:lucid="lucid" width="1536" height="1376"><g transform="translate(0 0)" lucid:page-tab-id="0_0"><path d="M390 520h200v188H390z" fill="#fff"/><path d="M390 520h200v188H390zM390 560h200" stroke="#3d4752" stroke-width="2" fill="none"/><use xlink:href="#a" transform="matrix(1,0,0,1,400.00000000000006,520) translate(10 26.555555555555557)"/><use xlink:href="#b" transform="matrix(1,0,0,1,395.00000000000006,562.5) translate(10 22.555555555555557)"/><use xlink:href="#c" transform="matrix(1,0,0,1,395.00000000000006,562.5) translate(73.70370370370371 22.555555555555557)"/><use xlink:href="#d" transform="matrix(1,0,0,1,395.00000000000006,562.5) translate(89.01234567901236 22.555555555555557)"/><use xlink:href="#e" transform="matrix(1,0,0,1,395.00000000000006,599.5) translate(10 22.555555555555557)"/><use xlink:href="#f" transform="matrix(1,0,0,1,395.00000000000006,636.5) translate(10 22.555555555555557)"/><use xlink:href="#g" transform="matrix(1,0,0,1,395.00000000000006,673.5) translate(10 22.555555555555557)"/><path d="M270 300h200v154H270z" fill="#fff"/><path d="M270 300h200v154H270zM270 340h200" stroke="#3d4752" stroke-width="2" fill="none"/><use xlink:href="#h" transform="matrix(1,0,0,1,280,300) translate(10 26.6)"/><use xlink:href="#i" transform="matrix(1,0,0,1,275,342.5) translate(10 23.1)"/><use xlink:href="#j" transform="matrix(1,0,0,1,275,380.5) translate(10 23.1)"/><use xlink:href="#k" transform="matrix(1,0,0,1,275,418.5) translate(10 23.1)"/><path d="M390 774h200v168H390z" fill="#fff"/><path d="M390 774h200v168H390zM390 814h200" stroke="#666" stroke-width="2" fill="none"/><use xlink:href="#l" transform="matrix(1,0,0,1,400.00000000000006,774) translate(67 23.6)"/><use xlink:href="#m" transform="matrix(1,0,0,1,395.00000000000006,816.5) translate(62.1 17.1)"/><use xlink:href="#n" transform="matrix(1,0,0,1,395.00000000000006,848.5) translate(47.55 17.1)"/><use xlink:href="#o" transform="matrix(1,0,0,1,395.00000000000006,880.5) translate(59 17.1)"/><use xlink:href="#p" transform="matrix(1,0,0,1,395.00000000000006,912.5) translate(56.5 17.1)"/><path d="M1130 180h200v136h-200z" fill="#fff"/><path d="M1130 180h200v136h-200zM1130 220h200" stroke="#666" stroke-width="2" fill="none"/><use xlink:href="#q" transform="matrix(1,0,0,1,1140,180) translate(61.525 23.6)"/><use xlink:href="#r" transform="matrix(1,0,0,1,1135,222.5) translate(56.62499999999999 17.1)"/><use xlink:href="#s" transform="matrix(1,0,0,1,1135,254.5) translate(17.075000000000003 17.1)"/><use xlink:href="#t" transform="matrix(1,0,0,1,1135,286.5) translate(46.55 17.1)"/><path d="M830 360h200v296H830z" fill="#fff"/><path d="M830 360h200v296H830zM830 400h200" stroke="#666" stroke-width="2" fill="none"/><use xlink:href="#u" transform="matrix(1,0,0,1,840,360) translate(42.575 23.6)"/><use xlink:href="#v" transform="matrix(1,0,0,1,835,402.5) translate(31.17499999999999 17.1)"/><use xlink:href="#w" transform="matrix(1,0,0,1,835,434.5) translate(68.275 17.1)"/><use xlink:href="#x" transform="matrix(1,0,0,1,835,466.5) translate(58.525 17.1)"/><use xlink:href="#y" transform="matrix(1,0,0,1,835,498.5) translate(30.474999999999994 17.1)"/><use xlink:href="#z" transform="matrix(1,0,0,1,835,530.5) translate(64 17.1)"/><use xlink:href="#A" transform="matrix(1,0,0,1,835,562.5) translate(53.375 17.1)"/><use xlink:href="#B" transform="matrix(1,0,0,1,835,594.5) translate(49.425 17.1)"/><use xlink:href="#C" transform="matrix(1,0,0,1,835,626.5) translate(72.05 17.1)"/><path d="M390 980h200v264H390z" fill="#fff"/><path d="M390 980h200v264H390zM390 1020h200" stroke="#666" stroke-width="2" fill="none"/><use xlink:href="#D" transform="matrix(1,0,0,1,400.00000000000006,980) translate(56.55 23.6)"/><use xlink:href="#E" transform="matrix(1,0,0,1,395.00000000000006,1022.5) translate(51.05 17.1)"/><use xlink:href="#F" transform="matrix(1,0,0,1,395.00000000000006,1054.5) translate(67.75 17.1)"/><use xlink:href="#x" transform="matrix(1,0,0,1,395.00000000000006,1086.5) translate(58.525 17.1)"/><use xlink:href="#G" transform="matrix(1,0,0,1,395.00000000000006,1118.5) translate(87.5 17.1)"/><use xlink:href="#H" transform="matrix(1,0,0,1,395.00000000000006,1150.5) translate(55.525 17.1)"/><use xlink:href="#I" transform="matrix(1,0,0,1,395.00000000000006,1182.5) translate(63.025 17.1)"/><use xlink:href="#J" transform="matrix(1,0,0,1,395.00000000000006,1214.5) translate(50.925 17.1)"/><path d="M591 829.72h119V544.36h119" stroke="#83bbe5" stroke-width="5" fill="none"/><path fill="#fff"/><path d="M613.5 839.72h-5v-20h5zM829 536.6l-15.53 7.76 15.53 7.76-2.24 4.48-24.47-12.24 24.46-12.24z" fill="#83bbe5"/><path d="M1331 235.88h49V1100H591" stroke="#ff8f80" stroke-width="5" fill="none"/><path fill="#fff"/><path d="M1353.5 245.88h-5v-20h5zM617.7 1100l-24.46 12.24-2.24-4.48 15.53-7.76-15.53-7.76 2.24-4.48z" fill="#ff8f80"/><path d="M1129 235.88H496V359h-25" stroke="#ef8d22" stroke-width="5" fill="none"/><path fill="#fff"/><path d="M1111.5 245.88h-5v-20h5zM497.7 359l-24.46 12.24-2.24-4.48 15.53-7.76-15.53-7.76 2.24-4.48z" fill="#ef8d22"/><path d="M1129 235.88h-49V480h-49" stroke="#7ab648" stroke-width="5" fill="none"/><path fill="#fff"/><path d="M1111.5 245.88h-5v-20h5zM1057.7 480l-24.46 12.24-2.24-4.48 15.53-7.76-15.53-7.76 2.24-4.48z" fill="#7ab648"/><path d="M269 358.82h-89V1068h209" stroke="#b391b5" stroke-width="5" fill="none"/><path fill="#fff"/><path d="M251.5 368.82h-5v-20h5zM389 1060.24l-15.53 7.76 15.53 7.76-2.24 4.48L362.3 1068l24.46-12.24z" fill="#b391b5"/><path d="M269 359h-40v219.5h160" stroke="#999" stroke-width="5" fill="none"/><path fill="#fff"/><path d="M251.5 369h-5v-20h5zM389 570.74l-15.53 7.76 15.53 7.76-2.24 4.48-24.47-12.24 24.46-12.24z" fill="#999"/><path d="M389 829.72h-40V690.25h40" stroke="#83bbe5" stroke-width="5" fill="none"/><path fill="#fff"/><path d="M371.5 839.72h-5v-20h5zM389 682.5l-15.53 7.75 15.53 7.77-2.24 4.47-24.47-12.25 24.46-12.23z" fill="#83bbe5"/><path d="M591 1036h198V576.68h40" stroke="#de5f85" stroke-width="5" fill="none"/><path fill="#fff"/><path d="M613.5 1046h-5v-20h5z" fill="#de5f85"/><path fill="#fff"/><path d="M811.5 586.68h-5v-20h5z" fill="#de5f85"/><path d="M829 447.4H650v-88.58H471" stroke="#19967d" stroke-width="5" fill="none"/><path fill="#fff"/><path d="M811.5 457.4h-5v-20h5z" fill="#19967d"/><path fill="#fff"/><path d="M493.5 368.82h-5v-20h5z" fill="#19967d"/><defs><path fill="#3d4752" d="M185-189c-5-48-123-54-124 2 14 75 158 14 163 119 3 78-121 87-175 55-17-10-28-26-33-46l33-7c5 56 141 63 141-1 0-78-155-14-162-118-5-82 145-84 179-34 5 7 8 16 11 25" id="K"/><path fill="#3d4752" d="M59-47c-2 24 18 29 38 22v24C64 9 27 4 27-40v-127H5v-23h24l9-43h21v43h35v23H59v120" id="L"/><path fill="#3d4752" d="M100-194c62-1 85 37 85 99 1 63-27 99-86 99S16-35 15-95c0-66 28-99 85-99zM99-20c44 1 53-31 53-75 0-43-8-75-51-75s-53 32-53 75 10 74 51 75" id="M"/><path fill="#3d4752" d="M115-194c55 1 70 41 70 98S169 2 115 4C84 4 66-9 55-30l1 105H24l-1-265h31l2 30c10-21 28-34 59-34zm-8 174c40 0 45-34 45-75s-6-73-45-74c-42 0-51 32-51 76 0 43 10 73 51 73" id="N"/><path fill="#3d4752" d="M-5 72V49h209v23H-5" id="O"/><path fill="#3d4752" d="M24-231v-30h32v30H24zM24 0v-190h32V0H24" id="P"/><path fill="#3d4752" d="M210-169c-67 3-38 105-44 169h-31v-121c0-29-5-50-35-48C34-165 62-65 56 0H25l-1-190h30c1 10-1 24 2 32 10-44 99-50 107 0 11-21 27-35 58-36 85-2 47 119 55 194h-31v-121c0-29-5-49-35-48" id="Q"/><path fill="#3d4752" d="M100-194c63 0 86 42 84 106H49c0 40 14 67 53 68 26 1 43-12 49-29l28 8c-11 28-37 45-77 45C44 4 14-33 15-96c1-61 26-98 85-98zm52 81c6-60-76-77-97-28-3 7-6 17-6 28h103" id="R"/><path fill="#3d4752" d="M135-143c-3-34-86-38-87 0 15 53 115 12 119 90S17 21 10-45l28-5c4 36 97 45 98 0-10-56-113-15-118-90-4-57 82-63 122-42 12 7 21 19 24 35" id="S"/><g id="a"><use transform="matrix(0.04938271604938272,0,0,0.04938271604938272,0,0)" xlink:href="#K"/><use transform="matrix(0.04938271604938272,0,0,0.04938271604938272,11.851851851851853,0)" xlink:href="#L"/><use transform="matrix(0.04938271604938272,0,0,0.04938271604938272,16.790123456790127,0)" xlink:href="#M"/><use transform="matrix(0.04938271604938272,0,0,0.04938271604938272,26.666666666666668,0)" xlink:href="#N"/><use transform="matrix(0.04938271604938272,0,0,0.04938271604938272,36.543209876543216,0)" xlink:href="#O"/><use transform="matrix(0.04938271604938272,0,0,0.04938271604938272,46.41975308641976,0)" xlink:href="#L"/><use transform="matrix(0.04938271604938272,0,0,0.04938271604938272,51.35802469135803,0)" xlink:href="#P"/><use transform="matrix(0.04938271604938272,0,0,0.04938271604938272,55.25925925925927,0)" xlink:href="#Q"/><use transform="matrix(0.04938271604938272,0,0,0.04938271604938272,70.0246913580247,0)" xlink:href="#R"/><use transform="matrix(0.04938271604938272,0,0,0.04938271604938272,79.90123456790124,0)" xlink:href="#S"/></g><path fill="#3d4752" d="M157-208L117 0H65l40-208H25l8-40h212l-8 40h-80" id="T"/><path fill="#3d4752" d="M84-151c13-25 34-51 72-40l-8 41C67-170 71-64 56 0H6l36-190h47" id="U"/><path fill="#3d4752" d="M50-224l7-37h49l-7 37H50zM6 0l37-190h49L55 0H6" id="V"/><path fill="#3d4752" d="M156-122c2-23-7-37-28-37-47 0-58 44-58 89 0 24 12 40 36 40 43 0 47-49 50-92zM-8 75l50-265h48c0 10-3 24-3 30 22-50 127-45 121 29-6 73-21 135-92 135-29 0-46-14-55-35L41 75H-8" id="W"/><path fill="#3d4752" d="M-21 44V30h207v14H-21" id="X"/><path fill="#3d4752" d="M132-28C118-9 101 4 69 4 30 4 10-23 10-62c0-70 24-129 92-132 31-1 47 14 56 35l19-102h49L179 0h-49zM62-69c0 22 7 39 29 39 45-2 54-45 57-90 2-27-10-40-33-40-44 0-53 48-53 91" id="Y"/><g id="b"><use transform="matrix(0.04938271604938272,0,0,0.04938271604938272,0,0)" xlink:href="#T"/><use transform="matrix(0.04938271604938272,0,0,0.04938271604938272,10.469135802469136,0)" xlink:href="#U"/><use transform="matrix(0.04938271604938272,0,0,0.04938271604938272,17.382716049382715,0)" xlink:href="#V"/><use transform="matrix(0.04938271604938272,0,0,0.04938271604938272,22.320987654320987,0)" xlink:href="#W"/><use transform="matrix(0.04938271604938272,0,0,0.04938271604938272,33.135802469135804,0)" xlink:href="#X"/><use transform="matrix(0.04938271604938272,0,0,0.04938271604938272,43.01234567901235,0)" xlink:href="#V"/><use transform="matrix(0.04938271604938272,0,0,0.04938271604938272,47.95061728395062,0)" xlink:href="#Y"/></g><path fill="#3d4752" d="M132-100v72H92v-72H22v-39h70v-72h40v72h70v39h-70" id="Z"/><use transform="matrix(0.04938271604938272,0,0,0.04938271604938272,0,0)" xlink:href="#Z" id="c"/><path fill="#3d4752" d="M178-136c88 48 22 151-73 140C49-3 12-15 4-64l51-9c1 50 111 53 115 3-16-63-132-20-133-112 0-93 190-91 199-10l-50 12c-4-41-93-50-97-4 7 38 59 32 89 48" id="aa"/><path fill="#3d4752" d="M72-63c-8 23 5 39 32 30L98-1C54 14 12-6 23-64l18-93H15l7-33h28l24-45h31l-8 45h35l-6 33H90" id="ab"/><path fill="#3d4752" d="M124-194c51 0 84 22 84 74C207-44 167 4 94 4 43 4 11-23 11-74c0-74 41-120 113-120zM99-30c46 0 58-42 58-86 0-27-11-44-37-44-44 0-55 40-57 84-1 27 10 45 36 46" id="ac"/><g id="d"><use transform="matrix(0.04938271604938272,0,0,0.04938271604938272,0,0)" xlink:href="#aa"/><use transform="matrix(0.04938271604938272,0,0,0.04938271604938272,11.851851851851853,0)" xlink:href="#ab"/><use transform="matrix(0.04938271604938272,0,0,0.04938271604938272,17.728395061728396,0)" xlink:href="#ac"/><use transform="matrix(0.04938271604938272,0,0,0.04938271604938272,28.543209876543205,0)" xlink:href="#W"/><use transform="matrix(0.04938271604938272,0,0,0.04938271604938272,39.358024691358025,0)" xlink:href="#X"/><use transform="matrix(0.04938271604938272,0,0,0.04938271604938272,49.23456790123457,0)" xlink:href="#V"/><use transform="matrix(0.04938271604938272,0,0,0.04938271604938272,54.17283950617284,0)" xlink:href="#Y"/></g><path fill="#3d4752" d="M205 0l-28-72H64L36 0H1l101-248h38L239 0h-34zm-38-99l-47-123c-12 45-31 82-46 123h93" id="ad"/><path fill="#3d4752" d="M114-163C36-179 61-72 57 0H25l-1-190h30c1 12-1 29 2 39 6-27 23-49 58-41v29" id="ae"/><path fill="#3d4752" d="M108 0H70L1-190h34L89-25l56-165h34" id="af"/><path fill="#3d4752" d="M141-36C126-15 110 5 73 4 37 3 15-17 15-53c-1-64 63-63 125-63 3-35-9-54-41-54-24 1-41 7-42 31l-33-3c5-37 33-52 76-52 45 0 72 20 72 64v82c-1 20 7 32 28 27v20c-31 9-61-2-59-35zM48-53c0 20 12 33 32 33 41-3 63-29 60-74-43 2-92-5-92 41" id="ag"/><path fill="#3d4752" d="M24 0v-261h32V0H24" id="ah"/><path fill="#3d4752" d="M127-220V0H93v-220H8v-28h204v28h-85" id="ai"/><g id="e"><use transform="matrix(0.04938271604938272,0,0,0.04938271604938272,0,0)" xlink:href="#ad"/><use transform="matrix(0.04938271604938272,0,0,0.04938271604938272,11.851851851851853,0)" xlink:href="#ae"/><use transform="matrix(0.04938271604938272,0,0,0.04938271604938272,17.728395061728396,0)" xlink:href="#ae"/><use transform="matrix(0.04938271604938272,0,0,0.04938271604938272,23.60493827160494,0)" xlink:href="#P"/><use transform="matrix(0.04938271604938272,0,0,0.04938271604938272,27.506172839506174,0)" xlink:href="#af"/><use transform="matrix(0.04938271604938272,0,0,0.04938271604938272,36.39506172839506,0)" xlink:href="#ag"/><use transform="matrix(0.04938271604938272,0,0,0.04938271604938272,46.27160493827161,0)" xlink:href="#ah"/><use transform="matrix(0.04938271604938272,0,0,0.04938271604938272,50.17283950617284,0)" xlink:href="#O"/><use transform="matrix(0.04938271604938272,0,0,0.04938271604938272,60.04938271604939,0)" xlink:href="#ai"/><use transform="matrix(0.04938271604938272,0,0,0.04938271604938272,70.22222222222223,0)" xlink:href="#P"/><use transform="matrix(0.04938271604938272,0,0,0.04938271604938272,74.12345679012347,0)" xlink:href="#Q"/><use transform="matrix(0.04938271604938272,0,0,0.04938271604938272,88.8888888888889,0)" xlink:href="#R"/></g><path fill="#3d4752" d="M30-248c118-7 216 8 213 122C240-48 200 0 122 0H30v-248zM63-27c89 8 146-16 146-99s-60-101-146-95v194" id="aj"/><path fill="#3d4752" d="M84 4C-5 8 30-112 23-190h32v120c0 31 7 50 39 49 72-2 45-101 50-169h31l1 190h-30c-1-10 1-25-2-33-11 22-28 36-60 37" id="ak"/><g id="f"><use transform="matrix(0.04938271604938272,0,0,0.04938271604938272,0,0)" xlink:href="#aj"/><use transform="matrix(0.04938271604938272,0,0,0.04938271604938272,12.790123456790125,0)" xlink:href="#R"/><use transform="matrix(0.04938271604938272,0,0,0.04938271604938272,22.66666666666667,0)" xlink:href="#N"/><use transform="matrix(0.04938271604938272,0,0,0.04938271604938272,32.543209876543216,0)" xlink:href="#ag"/><use transform="matrix(0.04938271604938272,0,0,0.04938271604938272,42.41975308641976,0)" xlink:href="#ae"/><use transform="matrix(0.04938271604938272,0,0,0.04938271604938272,48.296296296296305,0)" xlink:href="#L"/><use transform="matrix(0.04938271604938272,0,0,0.04938271604938272,53.23456790123457,0)" xlink:href="#ak"/><use transform="matrix(0.04938271604938272,0,0,0.04938271604938272,63.111111111111114,0)" xlink:href="#ae"/><use transform="matrix(0.04938271604938272,0,0,0.04938271604938272,68.98765432098766,0)" xlink:href="#R"/><use transform="matrix(0.04938271604938272,0,0,0.04938271604938272,78.8641975308642,0)" xlink:href="#O"/><use transform="matrix(0.04938271604938272,0,0,0.04938271604938272,88.74074074074075,0)" xlink:href="#ai"/><use transform="matrix(0.04938271604938272,0,0,0.04938271604938272,98.91358024691358,0)" xlink:href="#P"/><use transform="matrix(0.04938271604938272,0,0,0.04938271604938272,102.81481481481482,0)" xlink:href="#Q"/><use transform="matrix(0.04938271604938272,0,0,0.04938271604938272,117.58024691358025,0)" xlink:href="#R"/></g><path fill="#3d4752" d="M194-120c59 52 2 134-86 124-53-6-90-18-98-63l31-7c8 30 29 43 70 43 46 0 84-17 71-62-32-43-135-20-137-98-3-89 178-90 191-16l-30 9c-8-48-127-53-127 5 0 53 81 35 115 65" id="al"/><path fill="#3d4752" d="M51-54c-9 22 5 41 31 30L79-1C43 14 10-4 19-52l22-115H19l5-23h22l19-43h21l-9 43h35l-4 23H73" id="am"/><path fill="#3d4752" d="M30-147c31-64 166-65 159 27C183-49 158 1 86 4 9 8 1-88 30-147zM88-20c53 0 68-48 68-100 0-31-11-51-44-50-52 1-68 46-68 97 0 32 13 53 44 53" id="an"/><path fill="#3d4752" d="M67-162c32-53 139-36 121 50C175-51 163 2 97 4 68 4 52-11 42-31 38 6 28 39 22 75H-9l50-265h29c-1 10 0 20-3 28zm89 36c0-26-10-43-35-43-54 0-67 50-69 103-1 29 14 45 42 46 53 0 62-58 62-106" id="ao"/><path fill="#3d4752" d="M-28 44V31h207v13H-28" id="ap"/><path fill="#3d4752" d="M14 0l48-248h34L48 0H14" id="aq"/><path fill="#3d4752" d="M133-28C103 26-5 8 13-77c13-62 24-115 90-117 29-1 46 15 56 35l19-102h32L160 0h-30zM45-64c-2 27 10 43 35 43 54-1 69-50 69-103 0-29-15-46-42-46-53-1-58 58-62 106" id="ar"/><g id="g"><use transform="matrix(0.04938271604938272,0,0,0.04938271604938272,0,0)" xlink:href="#al"/><use transform="matrix(0.04938271604938272,0,0,0.04938271604938272,11.851851851851853,0)" xlink:href="#am"/><use transform="matrix(0.04938271604938272,0,0,0.04938271604938272,16.790123456790127,0)" xlink:href="#an"/><use transform="matrix(0.04938271604938272,0,0,0.04938271604938272,26.666666666666668,0)" xlink:href="#ao"/><use transform="matrix(0.04938271604938272,0,0,0.04938271604938272,36.543209876543216,0)" xlink:href="#ap"/><use transform="matrix(0.04938271604938272,0,0,0.04938271604938272,46.41975308641976,0)" xlink:href="#aq"/><use transform="matrix(0.04938271604938272,0,0,0.04938271604938272,51.35802469135803,0)" xlink:href="#ar"/></g><g id="h"><use transform="matrix(0.05,0,0,0.05,0,0)" xlink:href="#ai"/><use transform="matrix(0.05,0,0,0.05,10.3,0)" xlink:href="#ae"/><use transform="matrix(0.05,0,0,0.05,16.25,0)" xlink:href="#P"/><use transform="matrix(0.05,0,0,0.05,20.2,0)" xlink:href="#N"/><use transform="matrix(0.05,0,0,0.05,30.200000000000003,0)" xlink:href="#S"/></g><path fill="#3d4752" d="M136-208V0H84v-208H4v-40h212v40h-80" id="as"/><path fill="#3d4752" d="M135-150c-39-12-60 13-60 57V0H25l-1-190h47c2 13-1 29 3 40 6-28 27-53 61-41v41" id="at"/><path fill="#3d4752" d="M25-224v-37h50v37H25zM25 0v-190h50V0H25" id="au"/><path fill="#3d4752" d="M135-194c53 0 70 44 70 98 0 56-19 98-73 100-31 1-45-17-59-34 3 33 2 69 2 105H25l-1-265h48c2 10 0 23 3 31 11-24 29-35 60-35zM114-30c33 0 39-31 40-66 0-38-9-64-40-64-56 0-55 130 0 130" id="av"/><path fill="#3d4752" d="M-4 44V30h207v14H-4" id="aw"/><path fill="#3d4752" d="M88-194c31-1 46 15 58 34l-1-101h50l1 261h-48c-2-10 0-23-3-31C134-8 116 4 84 4 32 4 16-41 15-95c0-56 19-97 73-99zm17 164c33 0 40-30 41-66 1-37-9-64-41-64s-38 30-39 65c0 43 13 65 39 65" id="ax"/><g id="i"><use transform="matrix(0.05,0,0,0.05,0,0)" xlink:href="#as"/><use transform="matrix(0.05,0,0,0.05,9.950000000000001,0)" xlink:href="#at"/><use transform="matrix(0.05,0,0,0.05,16.950000000000003,0)" xlink:href="#au"/><use transform="matrix(0.05,0,0,0.05,21.950000000000003,0)" xlink:href="#av"/><use transform="matrix(0.05,0,0,0.05,32.900000000000006,0)" xlink:href="#aw"/><use transform="matrix(0.05,0,0,0.05,42.900000000000006,0)" xlink:href="#au"/><use transform="matrix(0.05,0,0,0.05,47.900000000000006,0)" xlink:href="#ax"/></g><path fill="#3d4752" d="M249-183c0 48-29 72-75 77L221 0h-36l-43-103H65L45 0H11l48-248c83 2 190-17 190 65zm-34 3c0-55-74-39-127-41l-18 92c63-1 145 13 145-51" id="ay"/><path fill="#3d4752" d="M67 3c-93-2-31-127-26-193h32L48-50c-3 39 53 32 70 12 30-34 30-101 43-152h32L157 0h-30c1-10 6-24 4-33-14 20-29 37-64 36" id="az"/><path fill="#3d4752" d="M111-194c62-3 86 47 72 106H45c-7 38 6 69 45 68 27-1 43-14 53-32l24 11C152-15 129 4 87 4 38 3 12-23 12-71c0-70 32-119 99-123zm44 81c14-66-71-72-95-28-4 8-8 17-11 28h106" id="aA"/><path fill="#3d4752" d="M50-231l6-30h32l-6 30H50zM6 0l37-190h31L37 0H6" id="aB"/><g id="j"><use transform="matrix(0.05,0,0,0.05,0,0)" xlink:href="#ay"/><use transform="matrix(0.05,0,0,0.05,12.950000000000001,0)" xlink:href="#an"/><use transform="matrix(0.05,0,0,0.05,22.950000000000003,0)" xlink:href="#az"/><use transform="matrix(0.05,0,0,0.05,32.95,0)" xlink:href="#am"/><use transform="matrix(0.05,0,0,0.05,37.95,0)" xlink:href="#aA"/><use transform="matrix(0.05,0,0,0.05,47.95,0)" xlink:href="#ap"/><use transform="matrix(0.05,0,0,0.05,57.95,0)" xlink:href="#aB"/><use transform="matrix(0.05,0,0,0.05,61.900000000000006,0)" xlink:href="#ar"/></g><path fill="#3d4752" d="M197 0v-115H63V0H30v-248h33v105h134v-105h34V0h-34" id="aC"/><path fill="#3d4752" d="M85-194c31 0 48 13 60 33l-1-100h32l1 261h-30c-2-10 0-23-3-31C134-8 116 4 85 4 32 4 16-35 15-94c0-66 23-100 70-100zm9 24c-40 0-46 34-46 75 0 40 6 74 45 74 42 0 51-32 51-76 0-42-9-74-50-73" id="aD"/><path fill="#3d4752" d="M177-190C167-65 218 103 67 71c-23-6-38-20-44-43l32-5c15 47 100 32 89-28v-30C133-14 115 1 83 1 29 1 15-40 15-95c0-56 16-97 71-98 29-1 48 16 59 35 1-10 0-23 2-32h30zM94-22c36 0 50-32 50-73 0-42-14-75-50-75-39 0-46 34-46 75s6 73 46 73" id="aE"/><path fill="#3d4752" d="M117-194c89-4 53 116 60 194h-32v-121c0-31-8-49-39-48C34-167 62-67 57 0H25l-1-190h30c1 10-1 24 2 32 11-22 29-35 61-36" id="aF"/><g id="k"><use transform="matrix(0.05,0,0,0.05,0,0)" xlink:href="#ai"/><use transform="matrix(0.05,0,0,0.05,10.3,0)" xlink:href="#ae"/><use transform="matrix(0.05,0,0,0.05,16.25,0)" xlink:href="#P"/><use transform="matrix(0.05,0,0,0.05,20.2,0)" xlink:href="#N"/><use transform="matrix(0.05,0,0,0.05,30.200000000000003,0)" xlink:href="#O"/><use transform="matrix(0.05,0,0,0.05,40.2,0)" xlink:href="#aC"/><use transform="matrix(0.05,0,0,0.05,53.150000000000006,0)" xlink:href="#R"/><use transform="matrix(0.05,0,0,0.05,63.150000000000006,0)" xlink:href="#ag"/><use transform="matrix(0.05,0,0,0.05,73.15,0)" xlink:href="#aD"/><use transform="matrix(0.05,0,0,0.05,83.15,0)" xlink:href="#S"/><use transform="matrix(0.05,0,0,0.05,92.15,0)" xlink:href="#P"/><use transform="matrix(0.05,0,0,0.05,96.10000000000001,0)" xlink:href="#aE"/><use transform="matrix(0.05,0,0,0.05,106.10000000000001,0)" xlink:href="#aF"/></g><path fill="#333" d="M185-189c-5-48-123-54-124 2 14 75 158 14 163 119 3 78-121 87-175 55-17-10-28-26-33-46l33-7c5 56 141 63 141-1 0-78-155-14-162-118-5-82 145-84 179-34 5 7 8 16 11 25" id="aG"/><path fill="#333" d="M59-47c-2 24 18 29 38 22v24C64 9 27 4 27-40v-127H5v-23h24l9-43h21v43h35v23H59v120" id="aH"/><path fill="#333" d="M100-194c62-1 85 37 85 99 1 63-27 99-86 99S16-35 15-95c0-66 28-99 85-99zM99-20c44 1 53-31 53-75 0-43-8-75-51-75s-53 32-53 75 10 74 51 75" id="aI"/><path fill="#333" d="M115-194c55 1 70 41 70 98S169 2 115 4C84 4 66-9 55-30l1 105H24l-1-265h31l2 30c10-21 28-34 59-34zm-8 174c40 0 45-34 45-75s-6-73-45-74c-42 0-51 32-51 76 0 43 10 73 51 73" id="aJ"/><path fill="#333" d="M135-143c-3-34-86-38-87 0 15 53 115 12 119 90S17 21 10-45l28-5c4 36 97 45 98 0-10-56-113-15-118-90-4-57 82-63 122-42 12 7 21 19 24 35" id="aK"/><g id="l"><use transform="matrix(0.05,0,0,0.05,0,0)" xlink:href="#aG"/><use transform="matrix(0.05,0,0,0.05,12,0)" xlink:href="#aH"/><use transform="matrix(0.05,0,0,0.05,17,0)" xlink:href="#aI"/><use transform="matrix(0.05,0,0,0.05,27,0)" xlink:href="#aJ"/><use transform="matrix(0.05,0,0,0.05,37,0)" xlink:href="#aK"/></g><path fill="#333" d="M169-182c-1-43-94-46-97-3 18 66 151 10 154 114 3 95-165 93-204 36-6-8-10-19-12-30l50-8c3 46 112 56 116 5-17-69-150-10-154-114-4-87 153-88 188-35 5 8 8 18 10 28" id="aL"/><path fill="#333" d="M115-3C79 11 28 4 28-45v-112H4v-33h27l15-45h31v45h36v33H77v99c-1 23 16 31 38 25v30" id="aM"/><path fill="#333" d="M110-194c64 0 96 36 96 99 0 64-35 99-97 99-61 0-95-36-95-99 0-62 34-99 96-99zm-1 164c35 0 45-28 45-65 0-40-10-65-43-65-34 0-45 26-45 65 0 36 10 65 43 65" id="aN"/><path fill="#333" d="M135-194c53 0 70 44 70 98 0 56-19 98-73 100-31 1-45-17-59-34 3 33 2 69 2 105H25l-1-265h48c2 10 0 23 3 31 11-24 29-35 60-35zM114-30c33 0 39-31 40-66 0-38-9-64-40-64-56 0-55 130 0 130" id="aO"/><path fill="#333" d="M-4 44V30h207v14H-4" id="aP"/><path fill="#333" d="M24 0v-248h52V0H24" id="aQ"/><path fill="#333" d="M88-194c31-1 46 15 58 34l-1-101h50l1 261h-48c-2-10 0-23-3-31C134-8 116 4 84 4 32 4 16-41 15-95c0-56 19-97 73-99zm17 164c33 0 40-30 41-66 1-37-9-64-41-64s-38 30-39 65c0 43 13 65 39 65" id="aR"/><g id="m"><use transform="matrix(0.05,0,0,0.05,0,0)" xlink:href="#aL"/><use transform="matrix(0.05,0,0,0.05,12,0)" xlink:href="#aM"/><use transform="matrix(0.05,0,0,0.05,17.95,0)" xlink:href="#aN"/><use transform="matrix(0.05,0,0,0.05,28.899999999999995,0)" xlink:href="#aO"/><use transform="matrix(0.05,0,0,0.05,39.85,0)" xlink:href="#aP"/><use transform="matrix(0.05,0,0,0.05,49.85,0)" xlink:href="#aQ"/><use transform="matrix(0.05,0,0,0.05,54.85,0)" xlink:href="#aR"/></g><path fill="#333" d="M-5 72V49h209v23H-5" id="aS"/><path fill="#333" d="M190 0L58-211 59 0H30v-248h39L202-35l-2-213h31V0h-41" id="aT"/><path fill="#333" d="M141-36C126-15 110 5 73 4 37 3 15-17 15-53c-1-64 63-63 125-63 3-35-9-54-41-54-24 1-41 7-42 31l-33-3c5-37 33-52 76-52 45 0 72 20 72 64v82c-1 20 7 32 28 27v20c-31 9-61-2-59-35zM48-53c0 20 12 33 32 33 41-3 63-29 60-74-43 2-92-5-92 41" id="aU"/><path fill="#333" d="M210-169c-67 3-38 105-44 169h-31v-121c0-29-5-50-35-48C34-165 62-65 56 0H25l-1-190h30c1 10-1 24 2 32 10-44 99-50 107 0 11-21 27-35 58-36 85-2 47 119 55 194h-31v-121c0-29-5-49-35-48" id="aV"/><path fill="#333" d="M100-194c63 0 86 42 84 106H49c0 40 14 67 53 68 26 1 43-12 49-29l28 8c-11 28-37 45-77 45C44 4 14-33 15-96c1-61 26-98 85-98zm52 81c6-60-76-77-97-28-3 7-6 17-6 28h103" id="aW"/><g id="n"><use transform="matrix(0.05,0,0,0.05,0,0)" xlink:href="#aG"/><use transform="matrix(0.05,0,0,0.05,12,0)" xlink:href="#aH"/><use transform="matrix(0.05,0,0,0.05,17,0)" xlink:href="#aI"/><use transform="matrix(0.05,0,0,0.05,27,0)" xlink:href="#aJ"/><use transform="matrix(0.05,0,0,0.05,37,0)" xlink:href="#aS"/><use transform="matrix(0.05,0,0,0.05,47,0)" xlink:href="#aT"/><use transform="matrix(0.05,0,0,0.05,59.95,0)" xlink:href="#aU"/><use transform="matrix(0.05,0,0,0.05,69.95,0)" xlink:href="#aV"/><use transform="matrix(0.05,0,0,0.05,84.9,0)" xlink:href="#aW"/></g><path fill="#333" d="M30 0v-248h33v221h125V0H30" id="aX"/><g id="o"><use transform="matrix(0.05,0,0,0.05,0,0)" xlink:href="#aG"/><use transform="matrix(0.05,0,0,0.05,12,0)" xlink:href="#aH"/><use transform="matrix(0.05,0,0,0.05,17,0)" xlink:href="#aI"/><use transform="matrix(0.05,0,0,0.05,27,0)" xlink:href="#aJ"/><use transform="matrix(0.05,0,0,0.05,37,0)" xlink:href="#aS"/><use transform="matrix(0.05,0,0,0.05,47,0)" xlink:href="#aX"/><use transform="matrix(0.05,0,0,0.05,57,0)" xlink:href="#aU"/><use transform="matrix(0.05,0,0,0.05,67,0)" xlink:href="#aH"/></g><path fill="#333" d="M117-194c89-4 53 116 60 194h-32v-121c0-31-8-49-39-48C34-167 62-67 57 0H25l-1-190h30c1 10-1 24 2 32 11-22 29-35 61-36" id="aY"/><g id="p"><use transform="matrix(0.05,0,0,0.05,0,0)" xlink:href="#aG"/><use transform="matrix(0.05,0,0,0.05,12,0)" xlink:href="#aH"/><use transform="matrix(0.05,0,0,0.05,17,0)" xlink:href="#aI"/><use transform="matrix(0.05,0,0,0.05,27,0)" xlink:href="#aJ"/><use transform="matrix(0.05,0,0,0.05,37,0)" xlink:href="#aS"/><use transform="matrix(0.05,0,0,0.05,47,0)" xlink:href="#aX"/><use transform="matrix(0.05,0,0,0.05,57,0)" xlink:href="#aI"/><use transform="matrix(0.05,0,0,0.05,67,0)" xlink:href="#aY"/></g><path fill="#333" d="M233-177c-1 41-23 64-60 70L243 0h-38l-65-103H63V0H30v-248c88 3 205-21 203 71zM63-129c60-2 137 13 137-47 0-61-80-42-137-45v92" id="aZ"/><path fill="#333" d="M84 4C-5 8 30-112 23-190h32v120c0 31 7 50 39 49 72-2 45-101 50-169h31l1 190h-30c-1-10 1-25-2-33-11 22-28 36-60 37" id="ba"/><g id="q"><use transform="matrix(0.05,0,0,0.05,0,0)" xlink:href="#aZ"/><use transform="matrix(0.05,0,0,0.05,12.950000000000001,0)" xlink:href="#aI"/><use transform="matrix(0.05,0,0,0.05,22.950000000000003,0)" xlink:href="#ba"/><use transform="matrix(0.05,0,0,0.05,32.95,0)" xlink:href="#aH"/><use transform="matrix(0.05,0,0,0.05,37.95,0)" xlink:href="#aW"/><use transform="matrix(0.05,0,0,0.05,47.95,0)" xlink:href="#aK"/></g><path fill="#333" d="M240-174c0 40-23 61-54 70L253 0h-59l-57-94H76V0H24v-248c93 4 217-23 216 74zM76-134c48-2 112 12 112-38 0-48-66-32-112-35v73" id="bb"/><path fill="#333" d="M85 4C-2 5 27-109 22-190h50c7 57-23 150 33 157 60-5 35-97 40-157h50l1 190h-47c-2-12 1-28-3-38-12 25-28 42-61 42" id="bc"/><path fill="#333" d="M185-48c-13 30-37 53-82 52C43 2 14-33 14-96s30-98 90-98c62 0 83 45 84 108H66c0 31 8 55 39 56 18 0 30-7 34-22zm-45-69c5-46-57-63-70-21-2 6-4 13-4 21h74" id="bd"/><g id="r"><use transform="matrix(0.05,0,0,0.05,0,0)" xlink:href="#bb"/><use transform="matrix(0.05,0,0,0.05,12.950000000000001,0)" xlink:href="#aN"/><use transform="matrix(0.05,0,0,0.05,23.900000000000002,0)" xlink:href="#bc"/><use transform="matrix(0.05,0,0,0.05,34.85,0)" xlink:href="#aM"/><use transform="matrix(0.05,0,0,0.05,40.800000000000004,0)" xlink:href="#bd"/><use transform="matrix(0.05,0,0,0.05,50.800000000000004,0)" xlink:href="#aP"/><use transform="matrix(0.05,0,0,0.05,60.800000000000004,0)" xlink:href="#aQ"/><use transform="matrix(0.05,0,0,0.05,65.80000000000001,0)" xlink:href="#aR"/></g><path fill="#333" d="M177-190C167-65 218 103 67 71c-23-6-38-20-44-43l32-5c15 47 100 32 89-28v-30C133-14 115 1 83 1 29 1 15-40 15-95c0-56 16-97 71-98 29-1 48 16 59 35 1-10 0-23 2-32h30zM94-22c36 0 50-32 50-73 0-42-14-75-50-75-39 0-46 34-46 75s6 73 46 73" id="be"/><g id="s"><use transform="matrix(0.05,0,0,0.05,0,0)" xlink:href="#aZ"/><use transform="matrix(0.05,0,0,0.05,12.950000000000001,0)" xlink:href="#aI"/><use transform="matrix(0.05,0,0,0.05,22.950000000000003,0)" xlink:href="#ba"/><use transform="matrix(0.05,0,0,0.05,32.95,0)" xlink:href="#aH"/><use transform="matrix(0.05,0,0,0.05,37.95,0)" xlink:href="#aW"/><use transform="matrix(0.05,0,0,0.05,47.95,0)" xlink:href="#aS"/><use transform="matrix(0.05,0,0,0.05,57.95,0)" xlink:href="#aX"/><use transform="matrix(0.05,0,0,0.05,67.95,0)" xlink:href="#aI"/><use transform="matrix(0.05,0,0,0.05,77.95,0)" xlink:href="#aY"/><use transform="matrix(0.05,0,0,0.05,87.95,0)" xlink:href="#be"/><use transform="matrix(0.05,0,0,0.05,97.95,0)" xlink:href="#aS"/><use transform="matrix(0.05,0,0,0.05,107.95,0)" xlink:href="#aT"/><use transform="matrix(0.05,0,0,0.05,120.9,0)" xlink:href="#aU"/><use transform="matrix(0.05,0,0,0.05,130.9,0)" xlink:href="#aV"/><use transform="matrix(0.05,0,0,0.05,145.85,0)" xlink:href="#aW"/></g><path fill="#333" d="M127-220V0H93v-220H8v-28h204v28h-85" id="bf"/><path fill="#333" d="M179-190L93 31C79 59 56 82 12 73V49c39 6 53-20 64-50L1-190h34L92-34l54-156h33" id="bg"/><g id="t"><use transform="matrix(0.05,0,0,0.05,0,0)" xlink:href="#aZ"/><use transform="matrix(0.05,0,0,0.05,12.950000000000001,0)" xlink:href="#aI"/><use transform="matrix(0.05,0,0,0.05,22.950000000000003,0)" xlink:href="#ba"/><use transform="matrix(0.05,0,0,0.05,32.95,0)" xlink:href="#aH"/><use transform="matrix(0.05,0,0,0.05,37.95,0)" xlink:href="#aW"/><use transform="matrix(0.05,0,0,0.05,47.95,0)" xlink:href="#aS"/><use transform="matrix(0.05,0,0,0.05,57.95,0)" xlink:href="#bf"/><use transform="matrix(0.05,0,0,0.05,67.9,0)" xlink:href="#bg"/><use transform="matrix(0.05,0,0,0.05,76.9,0)" xlink:href="#aJ"/><use transform="matrix(0.05,0,0,0.05,86.9,0)" xlink:href="#aW"/></g><path fill="#333" d="M114-163C36-179 61-72 57 0H25l-1-190h30c1 12-1 29 2 39 6-27 23-49 58-41v29" id="bh"/><path fill="#333" d="M24-231v-30h32v30H24zM24 0v-190h32V0H24" id="bi"/><path fill="#333" d="M16-82v-28h88v28H16" id="bj"/><path fill="#333" d="M85-194c31 0 48 13 60 33l-1-100h32l1 261h-30c-2-10 0-23-3-31C134-8 116 4 85 4 32 4 16-35 15-94c0-66 23-100 70-100zm9 24c-40 0-46 34-46 75 0 40 6 74 45 74 42 0 51-32 51-76 0-42-9-74-50-73" id="bk"/><g id="u"><use transform="matrix(0.05,0,0,0.05,0,0)" xlink:href="#aH"/><use transform="matrix(0.05,0,0,0.05,5,0)" xlink:href="#bh"/><use transform="matrix(0.05,0,0,0.05,10.95,0)" xlink:href="#bi"/><use transform="matrix(0.05,0,0,0.05,14.899999999999999,0)" xlink:href="#aJ"/><use transform="matrix(0.05,0,0,0.05,24.9,0)" xlink:href="#bj"/><use transform="matrix(0.05,0,0,0.05,30.849999999999994,0)" xlink:href="#ba"/><use transform="matrix(0.05,0,0,0.05,40.849999999999994,0)" xlink:href="#aJ"/><use transform="matrix(0.05,0,0,0.05,50.849999999999994,0)" xlink:href="#bk"/><use transform="matrix(0.05,0,0,0.05,60.849999999999994,0)" xlink:href="#aU"/><use transform="matrix(0.05,0,0,0.05,70.85,0)" xlink:href="#aH"/><use transform="matrix(0.05,0,0,0.05,75.85,0)" xlink:href="#aW"/><use transform="matrix(0.05,0,0,0.05,85.85,0)" xlink:href="#aK"/></g><path fill="#333" d="M136-208V0H84v-208H4v-40h212v40h-80" id="bl"/><path fill="#333" d="M135-150c-39-12-60 13-60 57V0H25l-1-190h47c2 13-1 29 3 40 6-28 27-53 61-41v41" id="bm"/><path fill="#333" d="M25-224v-37h50v37H25zM25 0v-190h50V0H25" id="bn"/><path fill="#333" d="M133-34C117-15 103 5 69 4 32 3 11-16 11-54c-1-60 55-63 116-61 1-26-3-47-28-47-18 1-26 9-28 27l-52-2c7-38 36-58 82-57s74 22 75 68l1 82c-1 14 12 18 25 15v27c-30 8-71 5-69-32zm-48 3c29 0 43-24 42-57-32 0-66-3-65 30 0 17 8 27 23 27" id="bo"/><g id="v"><use transform="matrix(0.05,0,0,0.05,0,0)" xlink:href="#bl"/><use transform="matrix(0.05,0,0,0.05,9.950000000000001,0)" xlink:href="#bm"/><use transform="matrix(0.05,0,0,0.05,16.950000000000003,0)" xlink:href="#bn"/><use transform="matrix(0.05,0,0,0.05,21.950000000000003,0)" xlink:href="#aO"/><use transform="matrix(0.05,0,0,0.05,32.900000000000006,0)" xlink:href="#aP"/><use transform="matrix(0.05,0,0,0.05,42.900000000000006,0)" xlink:href="#bc"/><use transform="matrix(0.05,0,0,0.05,53.85,0)" xlink:href="#aO"/><use transform="matrix(0.05,0,0,0.05,64.80000000000001,0)" xlink:href="#aR"/><use transform="matrix(0.05,0,0,0.05,75.75000000000001,0)" xlink:href="#bo"/><use transform="matrix(0.05,0,0,0.05,85.75000000000001,0)" xlink:href="#aM"/><use transform="matrix(0.05,0,0,0.05,91.70000000000002,0)" xlink:href="#bd"/><use transform="matrix(0.05,0,0,0.05,101.70000000000002,0)" xlink:href="#aP"/><use transform="matrix(0.05,0,0,0.05,111.7,0)" xlink:href="#bn"/><use transform="matrix(0.05,0,0,0.05,116.7,0)" xlink:href="#aR"/></g><path fill="#333" d="M151-220L108 0H75l42-220H32l6-28h203l-5 28h-85" id="bp"/><path fill="#333" d="M66-151c12-25 30-51 66-40l-6 26C45-176 58-65 38 0H6l36-190h30" id="bq"/><path fill="#333" d="M50-231l6-30h32l-6 30H50zM6 0l37-190h31L37 0H6" id="br"/><path fill="#333" d="M67-162c32-53 139-36 121 50C175-51 163 2 97 4 68 4 52-11 42-31 38 6 28 39 22 75H-9l50-265h29c-1 10 0 20-3 28zm89 36c0-26-10-43-35-43-54 0-67 50-69 103-1 29 14 45 42 46 53 0 62-58 62-106" id="bs"/><path fill="#333" d="M-28 44V31h207v13H-28" id="bt"/><path fill="#333" d="M133-28C103 26-5 8 13-77c13-62 24-115 90-117 29-1 46 15 56 35l19-102h32L160 0h-30zM45-64c-2 27 10 43 35 43 54-1 69-50 69-103 0-29-15-46-42-46-53-1-58 58-62 106" id="bu"/><g id="w"><use transform="matrix(0.05,0,0,0.05,0,0)" xlink:href="#bp"/><use transform="matrix(0.05,0,0,0.05,9.600000000000001,0)" xlink:href="#bq"/><use transform="matrix(0.05,0,0,0.05,15.55,0)" xlink:href="#br"/><use transform="matrix(0.05,0,0,0.05,19.5,0)" xlink:href="#bs"/><use transform="matrix(0.05,0,0,0.05,29.5,0)" xlink:href="#bt"/><use transform="matrix(0.05,0,0,0.05,39.5,0)" xlink:href="#br"/><use transform="matrix(0.05,0,0,0.05,43.45,0)" xlink:href="#bu"/></g><path fill="#333" d="M249-183c0 48-29 72-75 77L221 0h-36l-43-103H65L45 0H11l48-248c83 2 190-17 190 65zm-34 3c0-55-74-39-127-41l-18 92c63-1 145 13 145-51" id="bv"/><path fill="#333" d="M30-147c31-64 166-65 159 27C183-49 158 1 86 4 9 8 1-88 30-147zM88-20c53 0 68-48 68-100 0-31-11-51-44-50-52 1-68 46-68 97 0 32 13 53 44 53" id="bw"/><path fill="#333" d="M67 3c-93-2-31-127-26-193h32L48-50c-3 39 53 32 70 12 30-34 30-101 43-152h32L157 0h-30c1-10 6-24 4-33-14 20-29 37-64 36" id="bx"/><path fill="#333" d="M51-54c-9 22 5 41 31 30L79-1C43 14 10-4 19-52l22-115H19l5-23h22l19-43h21l-9 43h35l-4 23H73" id="by"/><path fill="#333" d="M111-194c62-3 86 47 72 106H45c-7 38 6 69 45 68 27-1 43-14 53-32l24 11C152-15 129 4 87 4 38 3 12-23 12-71c0-70 32-119 99-123zm44 81c14-66-71-72-95-28-4 8-8 17-11 28h106" id="bz"/><path fill="#333" d="M14 0l48-248h34L48 0H14" id="bA"/><g id="x"><use transform="matrix(0.05,0,0,0.05,0,0)" xlink:href="#bv"/><use transform="matrix(0.05,0,0,0.05,12.950000000000001,0)" xlink:href="#bw"/><use transform="matrix(0.05,0,0,0.05,22.950000000000003,0)" xlink:href="#bx"/><use transform="matrix(0.05,0,0,0.05,32.95,0)" xlink:href="#by"/><use transform="matrix(0.05,0,0,0.05,37.95,0)" xlink:href="#bz"/><use transform="matrix(0.05,0,0,0.05,47.95,0)" xlink:href="#bt"/><use transform="matrix(0.05,0,0,0.05,57.95,0)" xlink:href="#bA"/><use transform="matrix(0.05,0,0,0.05,62.95,0)" xlink:href="#bu"/></g><path fill="#333" d="M30-248c118-7 216 8 213 122C240-48 200 0 122 0H30v-248zM63-27c89 8 146-16 146-99s-60-101-146-95v194" id="bB"/><g id="y"><use transform="matrix(0.05,0,0,0.05,0,0)" xlink:href="#bB"/><use transform="matrix(0.05,0,0,0.05,12.950000000000001,0)" xlink:href="#aW"/><use transform="matrix(0.05,0,0,0.05,22.950000000000003,0)" xlink:href="#aJ"/><use transform="matrix(0.05,0,0,0.05,32.95,0)" xlink:href="#aU"/><use transform="matrix(0.05,0,0,0.05,42.95,0)" xlink:href="#bh"/><use transform="matrix(0.05,0,0,0.05,48.900000000000006,0)" xlink:href="#aH"/><use transform="matrix(0.05,0,0,0.05,53.900000000000006,0)" xlink:href="#ba"/><use transform="matrix(0.05,0,0,0.05,63.900000000000006,0)" xlink:href="#bh"/><use transform="matrix(0.05,0,0,0.05,69.85000000000001,0)" xlink:href="#aW"/><use transform="matrix(0.05,0,0,0.05,79.85000000000001,0)" xlink:href="#aS"/><use transform="matrix(0.05,0,0,0.05,89.85000000000001,0)" xlink:href="#bf"/><use transform="matrix(0.05,0,0,0.05,100.15,0)" xlink:href="#bi"/><use transform="matrix(0.05,0,0,0.05,104.10000000000001,0)" xlink:href="#aV"/><use transform="matrix(0.05,0,0,0.05,119.05000000000001,0)" xlink:href="#aW"/></g><path fill="#333" d="M194-120c59 52 2 134-86 124-53-6-90-18-98-63l31-7c8 30 29 43 70 43 46 0 84-17 71-62-32-43-135-20-137-98-3-89 178-90 191-16l-30 9c-8-48-127-53-127 5 0 53 81 35 115 65" id="bC"/><g id="z"><use transform="matrix(0.05,0,0,0.05,0,0)" xlink:href="#bC"/><use transform="matrix(0.05,0,0,0.05,12,0)" xlink:href="#by"/><use transform="matrix(0.05,0,0,0.05,17,0)" xlink:href="#bw"/><use transform="matrix(0.05,0,0,0.05,27,0)" xlink:href="#bs"/><use transform="matrix(0.05,0,0,0.05,37,0)" xlink:href="#bt"/><use transform="matrix(0.05,0,0,0.05,47,0)" xlink:href="#bA"/><use transform="matrix(0.05,0,0,0.05,52,0)" xlink:href="#bu"/></g><path fill="#333" d="M119 0H84L31-248h34l41 218 126-218h36" id="bD"/><path fill="#333" d="M67-158c15-20 31-36 64-36 94 0 33 127 27 194h-32l25-140c3-38-53-32-70-12C52-117 51-51 37 0H6l51-261h31" id="bE"/><path fill="#333" d="M44-68c0 29 11 47 38 47 30 0 42-19 51-41l28 9C148-21 126 4 82 4 31 4 10-29 12-85c3-77 74-140 146-93 12 8 15 23 18 40l-31 5c-1-22-13-36-36-36-52 0-65 49-65 101" id="bF"/><path fill="#333" d="M6 0l50-261h32L37 0H6" id="bG"/><g id="A"><use transform="matrix(0.05,0,0,0.05,0,0)" xlink:href="#bD"/><use transform="matrix(0.05,0,0,0.05,11.35,0)" xlink:href="#bz"/><use transform="matrix(0.05,0,0,0.05,21.35,0)" xlink:href="#bE"/><use transform="matrix(0.05,0,0,0.05,31.35,0)" xlink:href="#br"/><use transform="matrix(0.05,0,0,0.05,35.300000000000004,0)" xlink:href="#bF"/><use transform="matrix(0.05,0,0,0.05,44.300000000000004,0)" xlink:href="#bG"/><use transform="matrix(0.05,0,0,0.05,48.25000000000001,0)" xlink:href="#bz"/><use transform="matrix(0.05,0,0,0.05,58.25,0)" xlink:href="#bt"/><use transform="matrix(0.05,0,0,0.05,68.25,0)" xlink:href="#bA"/><use transform="matrix(0.05,0,0,0.05,73.25,0)" xlink:href="#bu"/></g><g id="B"><use transform="matrix(0.05,0,0,0.05,0,0)" xlink:href="#bf"/><use transform="matrix(0.05,0,0,0.05,10.3,0)" xlink:href="#bi"/><use transform="matrix(0.05,0,0,0.05,14.25,0)" xlink:href="#aV"/><use transform="matrix(0.05,0,0,0.05,29.200000000000003,0)" xlink:href="#aW"/><use transform="matrix(0.05,0,0,0.05,39.2,0)" xlink:href="#aG"/><use transform="matrix(0.05,0,0,0.05,51.2,0)" xlink:href="#aH"/><use transform="matrix(0.05,0,0,0.05,56.2,0)" xlink:href="#aU"/><use transform="matrix(0.05,0,0,0.05,66.2,0)" xlink:href="#aV"/><use transform="matrix(0.05,0,0,0.05,81.15,0)" xlink:href="#aJ"/></g><path fill="#333" d="M24 0v-261h32V0H24" id="bH"/><g id="C"><use transform="matrix(0.05,0,0,0.05,0,0)" xlink:href="#bB"/><use transform="matrix(0.05,0,0,0.05,12.950000000000001,0)" xlink:href="#aW"/><use transform="matrix(0.05,0,0,0.05,22.950000000000003,0)" xlink:href="#bH"/><use transform="matrix(0.05,0,0,0.05,26.900000000000002,0)" xlink:href="#aU"/><use transform="matrix(0.05,0,0,0.05,36.900000000000006,0)" xlink:href="#bg"/></g><path fill="#333" d="M137 0h-34L2-248h35l83 218 83-218h36" id="bI"/><path fill="#333" d="M106-169C34-169 62-67 57 0H25v-261h32l-1 103c12-21 28-36 61-36 89 0 53 116 60 194h-32v-121c2-32-8-49-39-48" id="bJ"/><path fill="#333" d="M96-169c-40 0-48 33-48 73s9 75 48 75c24 0 41-14 43-38l32 2c-6 37-31 61-74 61-59 0-76-41-82-99-10-93 101-131 147-64 4 7 5 14 7 22l-32 3c-4-21-16-35-41-35" id="bK"/><g id="D"><use transform="matrix(0.05,0,0,0.05,0,0)" xlink:href="#bI"/><use transform="matrix(0.05,0,0,0.05,11,0)" xlink:href="#aW"/><use transform="matrix(0.05,0,0,0.05,21,0)" xlink:href="#bJ"/><use transform="matrix(0.05,0,0,0.05,31,0)" xlink:href="#bi"/><use transform="matrix(0.05,0,0,0.05,34.95,0)" xlink:href="#bK"/><use transform="matrix(0.05,0,0,0.05,43.95,0)" xlink:href="#bH"/><use transform="matrix(0.05,0,0,0.05,47.900000000000006,0)" xlink:href="#aW"/><use transform="matrix(0.05,0,0,0.05,57.900000000000006,0)" xlink:href="#aK"/></g><path fill="#333" d="M147 0H94L2-248h55l64 206c17-72 42-137 63-206h54" id="bL"/><path fill="#333" d="M114-157C55-157 80-60 75 0H25v-261h50l-1 109c12-26 28-41 61-42 86-1 58 113 63 194h-50c-7-57 23-157-34-157" id="bM"/><path fill="#333" d="M190-63c-7 42-38 67-86 67-59 0-84-38-90-98-12-110 154-137 174-36l-49 2c-2-19-15-32-35-32-30 0-35 28-38 64-6 74 65 87 74 30" id="bN"/><path fill="#333" d="M25 0v-261h50V0H25" id="bO"/><g id="E"><use transform="matrix(0.05,0,0,0.05,0,0)" xlink:href="#bL"/><use transform="matrix(0.05,0,0,0.05,11,0)" xlink:href="#bd"/><use transform="matrix(0.05,0,0,0.05,21,0)" xlink:href="#bM"/><use transform="matrix(0.05,0,0,0.05,31.950000000000003,0)" xlink:href="#bn"/><use transform="matrix(0.05,0,0,0.05,36.95,0)" xlink:href="#bN"/><use transform="matrix(0.05,0,0,0.05,46.95,0)" xlink:href="#bO"/><use transform="matrix(0.05,0,0,0.05,51.95,0)" xlink:href="#bd"/><use transform="matrix(0.05,0,0,0.05,61.95,0)" xlink:href="#aP"/><use transform="matrix(0.05,0,0,0.05,71.95,0)" xlink:href="#aQ"/><use transform="matrix(0.05,0,0,0.05,76.95,0)" xlink:href="#aR"/></g><g id="F"><use transform="matrix(0.05,0,0,0.05,0,0)" xlink:href="#bp"/><use transform="matrix(0.05,0,0,0.05,9.600000000000001,0)" xlink:href="#bq"/><use transform="matrix(0.05,0,0,0.05,15.55,0)" xlink:href="#br"/><use transform="matrix(0.05,0,0,0.05,19.5,0)" xlink:href="#bs"/><use transform="matrix(0.05,0,0,0.05,29.5,0)" xlink:href="#bt"/><use transform="matrix(0.05,0,0,0.05,39.5,0)" xlink:href="#bA"/><use transform="matrix(0.05,0,0,0.05,44.5,0)" xlink:href="#bu"/></g><path fill="#333" d="M33 0v-248h34V0H33" id="bP"/><g id="G"><use transform="matrix(0.05,0,0,0.05,0,0)" xlink:href="#bP"/><use transform="matrix(0.05,0,0,0.05,5,0)" xlink:href="#bk"/></g><g id="H"><use transform="matrix(0.05,0,0,0.05,0,0)" xlink:href="#aX"/><use transform="matrix(0.05,0,0,0.05,10,0)" xlink:href="#aI"/><use transform="matrix(0.05,0,0,0.05,20,0)" xlink:href="#aY"/><use transform="matrix(0.05,0,0,0.05,30,0)" xlink:href="#be"/><use transform="matrix(0.05,0,0,0.05,40,0)" xlink:href="#bi"/><use transform="matrix(0.05,0,0,0.05,43.95,0)" xlink:href="#aH"/><use transform="matrix(0.05,0,0,0.05,48.95,0)" xlink:href="#ba"/><use transform="matrix(0.05,0,0,0.05,58.95,0)" xlink:href="#bk"/><use transform="matrix(0.05,0,0,0.05,68.95,0)" xlink:href="#aW"/></g><g id="I"><use transform="matrix(0.05,0,0,0.05,0,0)" xlink:href="#aX"/><use transform="matrix(0.05,0,0,0.05,10,0)" xlink:href="#aU"/><use transform="matrix(0.05,0,0,0.05,20,0)" xlink:href="#aH"/><use transform="matrix(0.05,0,0,0.05,25,0)" xlink:href="#bi"/><use transform="matrix(0.05,0,0,0.05,28.950000000000003,0)" xlink:href="#aH"/><use transform="matrix(0.05,0,0,0.05,33.95,0)" xlink:href="#ba"/><use transform="matrix(0.05,0,0,0.05,43.95,0)" xlink:href="#bk"/><use transform="matrix(0.05,0,0,0.05,53.95,0)" xlink:href="#aW"/></g><g id="J"><use transform="matrix(0.05,0,0,0.05,0,0)" xlink:href="#bf"/><use transform="matrix(0.05,0,0,0.05,10.3,0)" xlink:href="#bi"/><use transform="matrix(0.05,0,0,0.05,14.25,0)" xlink:href="#aV"/><use transform="matrix(0.05,0,0,0.05,29.200000000000003,0)" xlink:href="#aW"/><use transform="matrix(0.05,0,0,0.05,39.2,0)" xlink:href="#aK"/><use transform="matrix(0.05,0,0,0.05,48.2,0)" xlink:href="#aH"/><use transform="matrix(0.05,0,0,0.05,53.2,0)" xlink:href="#aU"/><use transform="matrix(0.05,0,0,0.05,63.2,0)" xlink:href="#aV"/><use transform="matrix(0.05,0,0,0.05,78.15,0)" xlink:href="#aJ"/></g></defs></g></svg>